<svg class="animated" id="freepik_stories-hand-coding" version="1.1" viewBox="0 0 750 500" xmlns="http://www.w3.org/2000/svg"><g class="animable" id="freepik--background-complete--inject-33" style="transform-origin: 377.81px 180.053px; animation: 1s cubic-bezier(0.36, -0.01, 0.5, 1.38) 0s 1 normal forwards running slideLeft;"><path class="animable" id="elx1674zj67or" d="M208.14 147H81.5V60.39h126.64zM82.5 146h124.64V61.39H82.5z" fill="#ebebeb" style="transform-origin: 144.82px 103.695px;"></path><path class="animable" id="elcfm1ugadi7v" d="M91.4 66a2.52 2.52 0 11-2.52-2.52A2.52 2.52 0 0191.4 66z" fill="#a6a6a6" style="transform-origin: 88.88px 66px;"></path><path class="animable" id="elek0dizhlgn6" d="M101.7 66a2.53 2.53 0 11-2.52-2.52A2.52 2.52 0 01101.7 66z" fill="#ebebeb" style="transform-origin: 99.17px 66.01px;"></path><path class="animable" id="elieawus8u9s" d="M112 66a2.52 2.52 0 11-2.52-2.52A2.52 2.52 0 01112 66z" fill="#3d0ec0" style="transform-origin: 109.48px 66px;"></path><path class="animable" id="el4ocz1t7s7xn" d="M82 70.41h125.64v1H82z" fill="#ebebeb" style="transform-origin: 144.82px 70.91px;"></path><path class="animable" id="elyl1z76ufyih" d="M73.84 151.67a2.79 2.79 0 012.93 0q.36.23.75.42c.25.14.51.27.77.4a2.78 2.78 0 011.63 2.41l.11 3.6 11.71-.37-.11-3.59A2.79 2.79 0 0193.1 152a15.21 15.21 0 001.49-.91 2.76 2.76 0 012.9-.19l3.16 1.7 5.54-10.33-3.19-1.67a2.76 2.76 0 01-1.45-2.52 17 17 0 00-.06-1.75 2.78 2.78 0 011.29-2.62l3-1.89-6.17-10-3.07 1.9a2.77 2.77 0 01-2.91 0q-.36-.22-.75-.42c-.25-.14-.51-.27-.77-.39a2.79 2.79 0 01-1.63-2.43l-.11-3.59-11.71.36.11 3.58a2.78 2.78 0 01-1.46 2.53c-.51.28-1 .59-1.49.92a2.78 2.78 0 01-2.91.19l-3.16-1.69-5.54 10.32 3.16 1.7a2.75 2.75 0 011.45 2.53 17.06 17.06 0 00.18 1.77 2.8 2.8 0 01-1.29 2.62l-3 1.89 6.17 9.95zm2.94-18.49a9.59 9.59 0 113.93 13 9.61 9.61 0 01-3.93-13z" fill="#ebebeb" style="transform-origin: 85.2px 137.695px;"></path><path class="animable" id="eljlnaxtp7dcr" d="M653.36 259.52a2.77 2.77 0 012.92 0l.75.43.78.39a2.78 2.78 0 011.63 2.41l.11 3.6 11.71-.37-.11-3.59a2.77 2.77 0 011.47-2.52 17.37 17.37 0 001.48-.92 2.8 2.8 0 012.91-.19l3.16 1.7 5.54-10.33-3.16-1.69a2.77 2.77 0 01-1.45-2.53 16.86 16.86 0 00-.06-1.74 2.8 2.8 0 011.29-2.63l3-1.89-6.17-10-3.07 1.91a2.77 2.77 0 01-2.91 0l-.75-.42c-.25-.14-.51-.27-.77-.39a2.77 2.77 0 01-1.63-2.42l-.11-3.6-11.71.36.11 3.59a2.76 2.76 0 01-1.46 2.52 14.28 14.28 0 00-1.49.93 2.78 2.78 0 01-2.91.18l-3.16-1.69-5.49 10.38 3.16 1.69a2.79 2.79 0 011.45 2.53 17.06 17.06 0 00.06 1.75 2.79 2.79 0 01-1.3 2.62l-3 1.89 6.17 10zM656.3 241a9.59 9.59 0 113.92 13 9.59 9.59 0 01-3.92-13z" fill="#ebebeb" style="transform-origin: 664.76px 245.54px;"></path><path class="animable" id="elmpssrxaqab" d="M97.46 182.31a2 2 0 011 1.82v1.21a1.93 1.93 0 01-1 1.8l-2.19 1.26 4.11 7.11 2.18-1.26a1.93 1.93 0 012 .08c.34.22.7.42 1.06.61a1.94 1.94 0 011.08 1.73v2.51h8.3v-2.51a1.94 1.94 0 011.08-1.73c.36-.19.71-.39 1-.61a1.94 1.94 0 012-.08l2.18 1.26 4.1-7.11-2.19-1.26a1.94 1.94 0 01-1-1.81v-1.2a1.94 1.94 0 011-1.81l2.18-1.26-4.1-7.11-2.17 1.26a2 2 0 01-2.05-.07 11.27 11.27 0 00-1.06-.62 1.93 1.93 0 01-1.08-1.73v-2.51h-8.21v2.51a1.93 1.93 0 01-1.08 1.73 10.13 10.13 0 00-1.06.62 2 2 0 01-2 .07L99.39 174l-4.11 7.11zm12.39-4.31a6.73 6.73 0 11-6.72 6.73 6.74 6.74 0 016.72-6.73z" fill="#ebebeb" style="transform-origin: 109.815px 184.73px;"></path><path class="animable" id="elx33e09n5xul" d="M91.66 285c0-1.13.15-4.14.15-5.42 0-5.49-2-8-7.07-8.12-2.4-.15-3.83-1.58-3.83-3.61s1.43-3.46 3.83-3.61c5.12-.23 7.07-2.64 7.07-8.2 0-1.28-.15-4.29-.15-5.42 0-7.29 3.09-12 14.75-14.51a3.25 3.25 0 012 6.16c-7.3 2.26-8.35 4.59-8.35 9.71 0 1.5.15 4 .15 5.56 0 5.87-2.86 8.73-7.83 10.31 5 1.65 7.83 4.44 7.83 10.3 0 1.58-.15 4.06-.15 5.57 0 5.11 1 7.45 8.35 9.7a3.25 3.25 0 01-2 6.17C94.75 297 91.66 292.34 91.66 285z" fill="#ebebeb" style="transform-origin: 95.6838px 267.857px;"></path><path class="animable" id="elb49pouow58h" d="M135.74 250.59c0 1.13-.15 4.14-.15 5.42 0 5.56 2 8 7.15 8.2 2.33.15 3.76 1.58 3.76 3.61s-1.43 3.46-3.76 3.61c-5.12.15-7.15 2.63-7.15 8.12 0 1.28.15 4.29.15 5.42 0 7.37-3.08 12-14.74 14.59a3.24 3.24 0 01-2-6.17c7.22-2.25 8.28-4.59 8.28-9.7 0-1.51-.15-4-.15-5.57 0-5.86 2.85-8.72 7.82-10.3-5-1.66-7.82-4.44-7.82-10.31 0-1.58.15-4.06.15-5.56 0-5.12-1.06-7.45-8.28-9.71a3.11 3.11 0 01-2.18-3.08 3.16 3.16 0 014.14-3.08c11.7 2.55 14.78 7.22 14.78 14.51z" fill="#ebebeb" style="transform-origin: 131.63px 267.82px;"></path><path class="animable" id="elul1d46iwth" d="M621.19 131.26a4 4 0 01-2.81 6.91 4.27 4.27 0 01-3-1.15l-18-18.26c-.2-.06-.26-.19-.32-.38a.84.84 0 00-.2-.13 2.11 2.11 0 01-.19-.51.34.34 0 01-.19-.26c-.06-.13-.06-.32-.13-.38s-.13-.26-.13-.32v-.45c0-.13-.06-.19-.06-.39s.06-.25.06-.32v-.44c0-.13.13-.2.13-.26s.07-.32.13-.51.06-.07.06-.13.2-.45.32-.58a.13.13 0 01.13-.13 1.19 1.19 0 01.39-.44l18-18.26a4.17 4.17 0 015.76 0 4 4 0 010 5.76L606 115.94z" fill="#ebebeb" style="transform-origin: 609.303px 115.943px;"></path><path class="animable" id="elm6yrohifodc" d="M637.53 133.31L653.22 96a3.55 3.55 0 014.68-1.86 3.45 3.45 0 011.79 4.55L644 136.06a3.54 3.54 0 01-3.27 2.11 3.1 3.1 0 01-1.28-.25 3.46 3.46 0 01-1.92-4.61z" fill="#ebebeb" style="transform-origin: 648.61px 116.008px;"></path><path class="animable" id="elivj71mc4h99" d="M690.7 118.25a.06.06 0 01-.06.06 3.18 3.18 0 01-.45.45l-18 18.26a4.19 4.19 0 01-5.77 0 4.06 4.06 0 010-5.76l15.18-15.32-15.18-15.31a4.06 4.06 0 010-5.76 4.18 4.18 0 015.77 0l18 18.26a3.15 3.15 0 01.45.44c.06 0 .06.13.06.13a5.27 5.27 0 01.32.58c0 .06.07.06.07.13a2.52 2.52 0 00.19.57c0 .07.06.07.06.2v.44c0 .07.07.26.07.32s-.07.26-.07.32v.52c0 .06-.06.06-.06.13a4.11 4.11 0 00-.19.57c0 .07-.07.07-.07.19s-.19.33-.32.58z" fill="#ebebeb" style="transform-origin: 678.316px 115.943px;"></path></g><g class="animable" id="freepik--Floor--inject-33" style="transform-origin: 375.02px 348.196px; animation: 1s cubic-bezier(0.36, -0.01, 0.5, 1.38) 0s 1 normal forwards running slideLeft;"><path class="animable" id="elogqncfg3m1" d="M59.52 348.2c202.12-.62 428.84-.62 631 0-202.12.61-428.84.61-631 0z" fill="#263238" style="transform-origin: 375.02px 348.196px;"></path></g><g class="animable" id="freepik--Plant--inject-33" style="transform-origin: 633.15px 243.675px; animation: 1s cubic-bezier(0.36, -0.01, 0.5, 1.38) 0s 1 normal forwards running lightSpeedLeft;"><path class="animable" id="el4n45a9wieb" d="M691 199.77c-23.36 31.64-47.72 68.35-53.65 108-.07.6.89.8 1 .2a235.06 235.06 0 0110.33-31.76c15.36-4.23 30.43-7.7 38.5-22.94 8.22-15.67 7.18-36.1 5.61-53.17-.05-.89-1.29-.94-1.79-.33z" fill="#3d0ec0" style="transform-origin: 665.61px 253.848px;"></path><path class="animable" id="el598xk85p0zm" d="M649 275.93c10.5-23.55 24-47.19 41.09-66.55.11-.13.29.05.19.18-11.21 13.79-19.73 28.81-28 44.09 7.73-7.85 16.21-14.88 23.54-23.21.14-.16.37.08.23.24-7.27 8.73-15.22 18.21-24.69 24.67q-3.82 7-7.71 14.1c.64-.36 1.29-.67 1.95-1 .11-.05.21.12.1.18-.72.36-1.44.75-2.19 1.06-1.23 2.23-2.44 4.46-3.71 6.68-.36.49-1.05.06-.8-.44z" fill="#263238" style="transform-origin: 669.628px 242.96px;"></path><path class="animable" id="eltrnpuc6lsn" d="M656.78 267.71a137.12 137.12 0 0017.93-12c.15-.12.37.09.22.22A94.19 94.19 0 01657 268.15c-.25.15-.51-.27-.22-.44z" fill="#263238" style="transform-origin: 665.816px 261.928px;"></path><path class="animable" id="el15nxeecqxgw" d="M634.68 301.89c.05.48.86.48.85 0 .13-13.06 0-26.18.21-39.31 3.35-6.75 10.53-10.49 15.53-15.9a70.15 70.15 0 009.32-13c6.17-11 9.52-23.48 10.8-36 1.38-14-3.92-60.08-9.81-58.48-3.05.83-12.94 23.67-15.56 31.22a217 217 0 00-9.3 38.28c-4.78 30.69-4.38 62.3-2.04 93.19z" fill="#3d0ec0" style="transform-origin: 652.303px 220.705px;"></path><path class="animable" id="elek4ss56d6t" d="M634.59 245.54l.06-.06c.71-16.53 4.44-33.22 7.92-49.25 3.76-17.27 8.15-33.54 17-48.94a.26.26 0 01.45.26 181.49 181.49 0 00-13.69 37.56c.6-.93 1.32-1.81 1.94-2.69.24-.35.82 0 .58.33a24.77 24.77 0 01-2.78 3.92.23.23 0 01-.12.06c-3.06 12.34-5.25 25-7.13 37.57.14-.16.27-.34.41-.49a.13.13 0 01.2.15c-.24.42-.5.83-.75 1.25-1 6.39-1.83 12.77-2.71 19.1 11.38-9.73 21.11-21.2 26.59-35.33a.06.06 0 01.11 0c-5.37 14.65-13.84 27.68-26.88 36.58l-.72 5.1c-.05.35-.61.26-.61-.08 0-1.51.08-3 .14-4.53a.34.34 0 01-.01-.51z" fill="#263238" style="transform-origin: 648.565px 199.025px;"></path><path class="animable" id="el3y3legmsirs" d="M640 221.58c8.7-13 16.82-25.59 23.19-39.94.07-.16.35 0 .28.12-5.36 14.26-12.87 28.71-23 40.16-.29.23-.7-.07-.47-.34z" fill="#263238" style="transform-origin: 651.707px 201.787px;"></path><path class="animable" id="elbo8tikfoo4d" d="M651.51 178.43c3.6-6.37 7.4-12.58 10.8-19.08.09-.18.34 0 .26.15a99 99 0 01-10.5 19.26c-.24.33-.77.04-.56-.33z" fill="#263238" style="transform-origin: 657.024px 169.089px;"></path><path class="animable" id="elfoh04pcngrc" d="M650.1 181.21a.06.06 0 010 .11.06.06 0 010-.11z" fill="#263238" style="transform-origin: 650.1px 181.265px;"></path><path class="animable" id="elkfum5dgnax" d="M625.84 264.11a133.09 133.09 0 01-3.05 25.74c.13.93.26 1.86.4 2.82a122.69 122.69 0 004.6-28.69.88.88 0 000-.89 190.7 190.7 0 00-2.79-38.9c-4.05-24-12.89-47.05-29.63-65.05a1.2 1.2 0 00-1.85.38c-6.76 17.18-4.4 37.69 1.36 54.83a100.42 100.42 0 0013.27 26c5.7 8.11 13.02 14.94 17.69 23.76z" fill="#3d0ec0" style="transform-origin: 608.657px 225.763px;"></path><path class="animable" id="el0nhkxgdm3ah9" d="M597.3 167.18c15.87 25.76 26.91 56.29 28.26 86.72 0 .54-.88.68-1 .13-.37-2.74-.79-5.45-1.23-8.14-6.56-6.29-13.3-12.93-18-20.78-.09-.14.11-.3.22-.18 5.71 6.53 11 13.22 17.49 19q-1.69-10.1-4.07-19.87c-.43-.49-.84-1-1.26-1.48-.27-.32.18-.79.47-.47l.38.42a231.14 231.14 0 00-8.29-26.34c-4-4.82-8.56-9-11.5-14.79a.12.12 0 01.21-.12 121.6 121.6 0 007.34 9.74c1.07 1.23 2.24 2.38 3.35 3.57a204.42 204.42 0 00-13-27.08.35.35 0 01.63-.33z" fill="#263238" style="transform-origin: 611.095px 210.685px;"></path><path class="animable" id="elo4lybj887hn" d="M600.51 199c5.13 6.91 11 13.49 15.74 20.63.14.2-.16.41-.33.25-6.13-5.74-11.31-13.59-15.76-20.67-.16-.28.2-.46.35-.21z" fill="#263238" style="transform-origin: 608.203px 209.409px;"></path><path class="animable" id="elaqdwdafkl8d" d="M617 221.18l.22.22c.15.15-.09.38-.24.23l-.22-.22c-.18-.15.06-.41.24-.23z" fill="#263238" style="transform-origin: 616.982px 221.399px;"></path><path class="animable" id="elncyvbhmovoq" d="M572.44 216.69c1.27 13.25 8.24 29.08 16.74 39.29a41.76 41.76 0 0013.58 10.6c5.88 2.91 12 6.26 18.13 8.65A118.94 118.94 0 01627.3 298c.2-.66.39-1.35.59-2-3.91-33.54-25.61-62.22-53.38-80.63a1.35 1.35 0 00-2.07 1.32z" fill="#3d0ec0" style="transform-origin: 600.159px 256.577px;"></path><path class="animable" id="elb4j9lp8zcr" d="M582 226.61c-.2-.18.07-.53.28-.37 14.72 10.9 28 26.8 35.39 43.61.2.46-.43.86-.69.4a145.26 145.26 0 00-4-6.62c-6.34-1.19-12.34-5.65-17-9.89-.13-.11.06-.3.18-.19a39.19 39.19 0 008 5.64c2.59 1.31 5.37 2.14 8.06 3.19-2.35-3.73-4.8-7.31-7.35-10.78-6.83-2.32-13.32-6.51-19-10.7-.18-.13 0-.43.18-.31a188.32 188.32 0 0017.7 9.46 157.46 157.46 0 00-12.5-14.57c-2.15-1.14-4.34-2.28-6.43-3.5-.17-.1 0-.39.14-.32a22.74 22.74 0 014.93 2.42c-2.51-2.53-5.1-5.03-7.89-7.47z" fill="#263238" style="transform-origin: 599.819px 248.326px;"></path><path class="animable" id="elf0ntlq89ct" d="M582.62 238.19a8 8 0 011.07.76c.1.09 0 .22-.14.18a9.33 9.33 0 01-1.11-.63c-.19-.13-.01-.43.18-.31z" fill="#263238" style="transform-origin: 583.045px 238.65px;"></path><path class="animable" id="el2z6wx9grdkz" d="M603.06 286.1h60.24l-5.93 62.09h-48.38l-5.93-62.09z" fill="#455a64" style="transform-origin: 633.18px 317.145px;"></path><path class="animable" id="elp5cwy5t1qlr" d="M604.2 298.02l-1.14-11.92h60.24l-.73 7.69-58.37 4.23z" fill="#37474f" style="transform-origin: 633.18px 292.06px;"></path><path class="animable" id="elehrgtr4emyc" d="M598.99 275.41h68.39v15.12h-68.39z" fill="#455a64" style="transform-origin: 633.185px 282.97px;"></path></g><g class="animable" id="freepik--Device--inject-33" style="transform-origin: 375px 243.705px; animation: 1s cubic-bezier(0.36, -0.01, 0.5, 1.38) 0s 1 normal forwards running lightSpeedLeft;"><path class="animable" id="elig1dpm9zm5c" d="M143.25 41.93h463.51v310.05H143.25z" fill="#dbdbdb" style="transform-origin: 375.005px 196.955px;"></path><path class="animable" id="elv58jsf2r9m" d="M146.62 45.71h456.77V348.2H146.62z" fill="#263238" style="transform-origin: 375.005px 196.955px;"></path><path class="animable" id="el7pbw2a0pbhp" d="M82.88 424h584.24v21.48H82.88z" fill="#c7c7c7" style="transform-origin: 375px 434.74px;"></path><path class="animable" id="elnsknbvhh23" d="M82.88 424l60.37-72.02h463.5L667.12 424H82.88z" fill="#dbdbdb" style="transform-origin: 375px 387.99px;"></path><path class="animable" id="eldc8w53iw1n8" d="M606.73 384.63H145.02l23.67-32.65h414.37l23.67 32.65z" fill="#263238" style="transform-origin: 375.875px 368.305px;"></path><path class="animable" id="elv8y0lh71o" d="M598.46 373.22H153.29l.96-1.33H597.5l.96 1.33z" fill="#37474f" style="transform-origin: 375.875px 372.555px;"></path><path class="animable" id="elsp0g1kiejyq" d="M589.81 361.3H161.94l.96-1.34h425.95l.96 1.34z" fill="#37474f" style="transform-origin: 375.875px 360.63px;"></path><path class="animable" id="elx926ry8m8af" d="M303.53 415.9l14.96-22.98h113.73l16.01 22.98h-144.7z" fill="#263238" style="transform-origin: 375.88px 404.41px;"></path><path class="animable" id="elu7fh4bchlxk" d="M417.85 432.63H333.9l-2.08-8.63h88.12l-2.09 8.63z" fill="#dbdbdb" style="transform-origin: 375.88px 428.315px;"></path><path class="animable" id="elel1tyd14hkl" d="M172.09 68.69h405.83v256.96H172.09z" fill="#37474f" style="transform-origin: 375.005px 197.17px;"></path><path class="animable" id="el15k83hi2vfl" d="M172.09 68.69h405.83v9.89H172.09z" fill="#3d0ec0" style="transform-origin: 375.005px 73.635px;"></path><path class="animable" id="elqsgvcreemr" d="M181.39 73.63a1.87 1.87 0 11-1.87-1.87 1.86 1.86 0 011.87 1.87z" fill="#c7c7c7" style="transform-origin: 179.52px 73.63px;"></path><path class="animable" id="el083jdp9qilgo" d="M189 73.63a1.87 1.87 0 11-1.87-1.87 1.86 1.86 0 011.87 1.87z" fill="#fff" style="transform-origin: 187.13px 73.63px;"></path><path class="animable" id="elotf2chxmtt" d="M196.67 73.63a1.87 1.87 0 11-1.87-1.87 1.86 1.86 0 011.87 1.87z" fill="#455a64" style="transform-origin: 194.8px 73.63px;"></path><path class="animable" id="elrqi00z69km" d="M198.02 122.51h11.42v3.47h-11.42z" fill="#ebebeb" style="transform-origin: 203.73px 124.245px;"></path><path class="animable" id="el59hs1uc8npg" d="M222.91 122.51h253.1v3.47h-253.1z" fill="#ebebeb" style="transform-origin: 349.46px 124.245px;"></path><path class="animable" id="elsobdlle1a6" d="M483.03 122.51h21.69v3.47h-21.69z" fill="#3d0ec0" style="transform-origin: 493.875px 124.245px;"></path><path class="animable" id="elayqs4wfsix" d="M198.02 138.92h11.42v3.47h-11.42z" fill="#ebebeb" style="transform-origin: 203.73px 140.655px;"></path><path class="animable" id="elek8z33wcy7p" d="M234.04 138.92h85.95v3.47h-85.95z" fill="#a6a6a6" style="transform-origin: 277.015px 140.655px;"></path><path class="animable" id="elg6fjts45crt" d="M480.07 204.58h32.51v3.47h-32.51z" fill="#a6a6a6" style="transform-origin: 496.325px 206.315px;"></path><path class="animable" id="elmorgtspnazi" d="M222.91 188.16h82.1v3.47h-82.1z" fill="#a6a6a6" style="transform-origin: 263.96px 189.895px;"></path><path class="animable" id="elhrxj523vgm4" d="M234.04 155.34h57.6v3.47h-57.6z" fill="#3d0ec0" style="transform-origin: 262.84px 157.075px;"></path><path class="animable" id="elmb6s3eel0hf" d="M298.03 155.34h214.1v3.47h-214.1z" fill="#a6a6a6" style="transform-origin: 405.08px 157.075px;"></path><path class="animable" id="el4lq776e69h" d="M222.91 204.58h249.73v3.47H222.91z" fill="#3d0ec0" style="transform-origin: 347.775px 206.315px;"></path><path class="animable" id="elz8d6uzjlx1a" d="M325.39 138.92H502.3v3.47H325.39z" fill="#ebebeb" style="transform-origin: 413.845px 140.655px;"></path><path class="animable" id="el0zabr2yscxi" d="M198.02 155.34h11.42v3.47h-11.42z" fill="#ebebeb" style="transform-origin: 203.73px 157.075px;"></path><path class="animable" id="elw93t1gzjtv" d="M198.02 171.75h11.42v3.47h-11.42z" fill="#a6a6a6" style="transform-origin: 203.73px 173.485px;"></path><path class="animable" id="el494e7ygn8ex" d="M222.91 171.75h67.48v3.47h-67.48z" fill="#ebebeb" style="transform-origin: 256.65px 173.485px;"></path><path class="animable" id="elx1mfx4dll1a" d="M234.04 220.99h67.48v3.47h-67.48z" fill="#ebebeb" style="transform-origin: 267.78px 222.725px;"></path><path class="animable" id="elliw35zqj5mh" d="M295.06 237.41h181.03v3.47H295.06z" fill="#ebebeb" style="transform-origin: 385.575px 239.145px;"></path><path class="animable" id="elgnd2wsci5sg" d="M234.04 237.41h50.72v3.47h-50.72z" fill="#a6a6a6" style="transform-origin: 259.4px 239.145px;"></path><path class="animable" id="elad4gjap1j64" d="M309.65 188.16h195.06v3.47H309.65z" fill="#ebebeb" style="transform-origin: 407.18px 189.895px;"></path><path class="animable" id="el1zs7kf3jila" d="M297.25 171.75h194.98v3.47H297.25z" fill="#3d0ec0" style="transform-origin: 394.74px 173.485px;"></path><path class="animable" id="el97o7f3yh7ht" d="M198.02 188.16h11.42v3.47h-11.42z" fill="#ebebeb" style="transform-origin: 203.73px 189.895px;"></path><path class="animable" id="el7hejhoj63y8" d="M198.02 204.58h11.42v3.47h-11.42z" fill="#ebebeb" style="transform-origin: 203.73px 206.315px;"></path><path class="animable" id="el75az5xpimjh" d="M198.02 220.99h11.42v3.47h-11.42z" fill="#a6a6a6" style="transform-origin: 203.73px 222.725px;"></path><path class="animable" id="elhjlcpp50vf" d="M198.02 237.41h11.42v3.47h-11.42z" fill="#ebebeb" style="transform-origin: 203.73px 239.145px;"></path><path class="animable" id="ellq6ghzvd7wh" d="M198.02 252.31h11.42v3.47h-11.42z" fill="#ebebeb" style="transform-origin: 203.73px 254.045px;"></path><path class="animable" id="elmxfasuhw6z" d="M222.91 252.31h133.88v3.47H222.91z" fill="#ebebeb" style="transform-origin: 289.85px 254.045px;"></path><path class="animable" id="el91ahs6qjlhp" d="M202.54 106.11a.63.63 0 01-.44 1.08.67.67 0 01-.46-.18l-2.83-2.86-.05-.06a.26.26 0 010-.08v-.06c0-.06 0 0 0 0v-.13c0-.06 0 0 0 0V103.67c0-.03 0 0 0 0a.73.73 0 010-.09.19.19 0 01.06-.07l2.83-2.86a.65.65 0 01.9 0 .63.63 0 010 .9l-2.38 2.4z" fill="#3d0ec0" style="transform-origin: 200.748px 103.83px;"></path><path class="animable" id="elxbh0ijyt908" d="M205.1 106.43l2.46-5.86a.55.55 0 01.73-.29.54.54 0 01.29.71l-2.47 5.87a.55.55 0 01-.51.33.48.48 0 01-.2 0 .54.54 0 01-.3-.76z" fill="#3d0ec0" style="transform-origin: 206.831px 103.717px;"></path><path class="animable" id="ello41jzd1plf" d="M213.44 104.06l-.07.08-2.84 2.86a.65.65 0 01-.9 0 .63.63 0 010-.9l2.37-2.4-2.38-2.4a.63.63 0 010-.9.65.65 0 01.9 0l2.83 2.86.07.07a.9.9 0 01.05.09.47.47 0 000 .09V103.66a.92.92 0 000 .09z" fill="#3d0ec0" style="transform-origin: 211.45px 103.7px;"></path><path class="animable" id="els57bks3kk69" d="M364.23 244.68h1.56v18.73h-1.56z" fill="#ebebeb" style="transform-origin: 365.01px 254.045px;"></path></g><defs></defs></svg>